PathFileType	4	(X/Y/Z)	C:/Users/beibeiliu/ov580/test_trc/User3\sequence.24_training_dense_left.trc
DataRate	CameraRate	NumFrames	NumMarkers	Units	OrigDataRate	OrigDataStartFrame	OrigNumFrames
120	120	19	19	mm	120	241	275
Frame#	Time	ThumbCMC			ThumbMCP			ThumbIP			ThumbTip			IndexMCP			IndexPIP			IndexTip			MiddleMCP			MiddlePIP			MiddleTip			RingMCP			RingPIP			RingTip			PinkyMCP			PinkyPIP			PinkyTip			BackHand1			BackHand2			BackHand3	
		X0	Y0	Z0	X1	Y1	Z1	X2	Y2	Z2	X3	Y3	Z3	X4	Y4	Z4	X5	Y5	Z5	X6	Y6	Z6	X7	Y7	Z7	X8	Y8	Z8	X9	Y9	Z9	X10	Y10	Z10	X11	Y11	Z11	X12	Y12	Z12	X13	Y13	Z13	X14	Y14	Z14	X15	Y15	Z15	X16	Y16	Z16	X17	Y17	Z17	X18	Y18	Z18	
240	2	-153.475	-13.9126	18.6552	-137.062	-15.1608	-4.38299	-121.862	-9.35997	-31.5701	-117.96	-5.7688	-54.3654	-162.613	32.9245	-40.2976	-153.292	30.8408	-69.9904	-146.053	23.1888	-89.9052	-181.228	13.6855	-53.0252	-171.648	-12.418	-60.3138	-171.539	-27.0209	-19.5298	-193.417	4.32517	-47.5486	-185.831	-24.6801	-47.1147	-186.454	-25.5718	-12.1113	-212.938	-5.98049	-46.7267	-199.358	-29.4288	-40.6196	-198.379	-26.0733	-10.9095	-214.395	15.838	6.79846	-215.32	-1.77557	31.5979	-181.674	12.6739	27.4898	
241	2.00833	-160.133	-16.2475	18.574	-140.827	-16.862	-9.32643	-125.701	-11.4939	-37.9616	-121.441	-13.0789	-56.4859	-166.633	26.2183	-47.3588	-158.905	21.8913	-73.3982	-155.181	9.36813	-97.0506	-185.347	8.45119	-55.517	-174.075	-22.8435	-61.6127	-175.457	-33.122	-22.8449	-201.175	-4.18829	-51.8797	-192.829	-35.8398	-45.5675	-188.644	-28.1432	-13.0374	-218.748	-15.1601	-46.8815	-203.157	-37.3746	-37.5514	-205.796	-30.8788	-9.53639	-218.495	12.8103	3.09041	-221.065	-3.69272	29.6926	-188.017	11.9772	18.2061	
242	2.01667	-159.594	-14.3363	14.4921	-147.134	-16.2163	-14.0825	-129.1	-15.6099	-38.9415	-119.471	-16.3862	-61.5241	-171.156	17.9168	-57.6215	-165.973	9.31225	-82.851	-161.277	-6.13128	-104.379	-191.717	-3.18289	-61.2785	-176.525	-33.2952	-61.535	-178.821	-39.4658	-24.7612	-209.375	-15.709	-54.5643	-192.029	-41.6309	-45.9207	-193.214	-33.0053	-12.176	-220.548	-24.538	-48.1442	-203.433	-43.9125	-37.7225	-207.339	-34.7647	-6.82403	-218.928	8.74744	-2.32328	-221.687	-5.18093	27.6047	-189.319	12.2791	14.2529	
243	2.025	-163.454	-12.1508	12.7036	-146.372	-15.8231	-13.2393	-134.07	-15.9986	-40.5325	-123.259	-18.15	-60.576	-179.825	10.1525	-62.0185	-172.82	-0.323172	-85.7849	-162.83	-17.3494	-107.102	-193.495	-12.633	-63.5942	-180.315	-42.2893	-62.1526	-181.108	-43.277	-22.5144	-210.894	-24.6669	-53.1056	-192.378	-49.0824	-47.4023	-193.747	-36.7995	-11.5782	-220.206	-36.2383	-48.1377	-204.265	-53.925	-35.2734	-206.132	-40.7955	-8.45263	-223.317	2.84994	-9.81485	-224.047	-5.31216	23.3803	-198.262	8.97782	10.8768	
244	2.03333	-167.517	-9.10214	8.84658	-147.548	-11.3714	-12.8362	-135.12	-12.6518	-38.3491	-122.561	-14.2928	-62.4526	-183.464	3.49259	-63.4281	-175.408	-7.96883	-87.4378	-159.903	-25.4571	-105.668	-194.27	-21.2721	-65.6849	-178.949	-48.923	-60.4018	-177.971	-45.8031	-21.0463	-206.585	-34.7281	-54.8786	-187.224	-56.1814	-39.9256	-193.165	-41.6719	-10.072	-220.041	-46.3529	-46.7957	-201.256	-62.7459	-34.4364	-202.986	-47.3672	-6.31153	-230.999	-8.03999	-10.3559	-230.054	-9.68736	18.3738	-198.335	7.97667	8.16339	
245	2.04167	-170.119	-3.05762	10.5293	-148.775	-5.37384	-18.3147	-134.255	-7.44774	-38.2299	-124.325	-12.5388	-57.8637	-185.319	-4.94857	-68.5312	-172.007	-17.4741	-89.3993	-155.129	-33.9801	-104.805	-192.924	-26.999	-63.6647	-172.094	-52.6439	-57.1016	-175.432	-46.3565	-18.0499	-200.971	-43.0053	-54.8755	-182.445	-61.0964	-36.3025	-189.344	-46.1773	-9.48267	-216.141	-57.3484	-44.7737	-192.432	-65.8945	-32.0036	-197.692	-50.578	-4.3646	-231.992	-14.9189	-16.7909	-231.879	-15.2067	16.187	-205.428	7.36491	2.54784	
246	2.05	-171.722	2.22224	6.46322	-151.859	-1.85711	-19.2567	-136.691	-4.46174	-36.8321	-123.032	-8.4879	-55.9607	-183.187	-11.7675	-70.9034	-165.984	-23.5911	-89.8797	-149.826	-42.2316	-99.7987	-187.3	-34.6997	-63.6648	-161.621	-53.3995	-49.1545	-167.11	-41.1107	-14.6551	-198.268	-52.9335	-51.4586	-171.613	-59.9196	-31.9985	-186.118	-43.4906	-6.37242	-203.477	-63.1786	-42.7958	-182.246	-66.0921	-24.5563	-191.848	-52.7603	-4.30426	-230.226	-20.7384	-20.1064	-232.675	-20.3077	15.9882	-210.47	3.76941	-5.21457	
247	2.05833	-177.029	3.74304	4.31875	-155.239	-1.23016	-15.3663	-135.691	0.278641	-39.717	-121.373	-2.81002	-52.9206	-178.728	-12.1897	-70.6968	-160.325	-25.3922	-86.7286	-138.935	-39.5872	-95.3981	-179.678	-39.1465	-61.3163	-152.79	-50.1921	-46.6791	-166.127	-36.0464	-9.95602	-188.454	-55.9351	-48.2098	-165.729	-62.0115	-25.3189	-181.756	-40.9208	-3.1854	-195.37	-69.1956	-38.1371	-173.369	-65.4997	-20.6297	-185.162	-48.0277	0.0315253	-229.868	-31.8399	-20.6488	-233.541	-24.8575	11.576	-215.163	-0.211271	-3.79103	
248	2.06667	-177.902	8.57175	3.38349	-155.207	4.44445	-14.5815	-134.619	5.03536	-33.8273	-117.372	2.32676	-51.3269	-177.086	-17.9079	-67.1666	-153.159	-27.2101	-83.065	-130.97	-42.0324	-89.237	-174.473	-43.4527	-57.8365	-143.192	-45.3827	-40.6226	-156.867	-31.8896	-8.11771	-178.907	-56.0285	-44.3574	-154.959	-55.0789	-22.5871	-171.142	-37.567	-0.634825	-185.628	-70.4182	-33.0757	-165.347	-63.7912	-14.1621	-183.741	-46.3447	6.28934	-223.33	-35.6183	-21.2534	-232.331	-27.3415	10.5037	-213.9	-3.94827	-6.14766	
249	2.075	-180.79	10.9305	0.700164	-155.131	8.98984	-14.6333	-131.634	9.61934	-35.0907	-114.175	10.144	-44.5708	-168.936	-21.369	-67.8946	-146.806	-27.3053	-77.2261	-120.652	-35.5334	-80.794	-166.551	-42.0284	-53.4638	-137.453	-43.5841	-36.7024	-153.488	-29.3013	-2.75061	-168.901	-56.8789	-38.8443	-147.172	-50.3416	-14.5151	-170.053	-31.978	3.85167	-172.537	-69.1865	-27.6736	-156.129	-60.4472	-6.62658	-175.976	-43.4908	11.3344	-220.823	-44.2125	-19.4425	-227.868	-32.1774	10.855	-215.664	-3.69773	-8.35098	
250	2.08333	-184.73	9.15799	1.03407	-154.801	14.2861	-12.8364	-131.349	15.322	-30.4519	-115.099	17.5231	-38.1485	-162.191	-17.09	-64.205	-137.737	-26.1289	-71.0864	-105.544	-30.6015	-71.7437	-152.464	-41.9127	-49.211	-128.14	-33.0154	-30.3925	-144.507	-21.2763	1.26344	-158.185	-52.2853	-33.7059	-138.976	-46.5167	-8.69183	-159.339	-28.4596	8.93999	-162.373	-65.4868	-20.2817	-147.998	-51.414	0.901445	-168.4	-36.9622	15.5967	-212.519	-44.1659	-18.2709	-224.526	-35.5923	10.9458	-214.105	-10.0726	-9.30927	
251	2.09167	-187.367	16.1425	2.62931	-158.225	20.0886	-8.25498	-132.723	23.4034	-25.0023	-114.182	25.8798	-36.7107	-152.884	-17.0331	-59.485	-125.963	-17.727	-64.0658	-100.331	-16.6568	-61.8587	-144.551	-34.4984	-44.3818	-120.766	-26.3885	-25.2942	-139.058	-11.2576	5.60952	-144.602	-48.5272	-27.7029	-128.835	-34.7568	-5.34875	-153.984	-21.5277	14.3363	-152.533	-59.715	-12.9089	-138.627	-42.3695	6.15061	-164.575	-26.6876	19.0197	-203.034	-46.6349	-18.0358	-221.379	-39.0038	11.002	-212.849	-15.5653	-11.9064	
252	2.1	-190.608	15.0268	2.95488	-159.514	26.4874	-12.2359	-136.633	32.6741	-23.0193	-116.972	38.5116	-31.7341	-150.106	-11.4216	-54.9374	-117.849	-11.1434	-57.1367	-91.6987	-6.27453	-53.9365	-135.771	-30.065	-39.4096	-115.181	-14.5289	-21.5591	-138.831	-0.204944	11.1948	-137.923	-41.5989	-22.7568	-122.711	-26.7352	-2.53037	-147.008	-15.4962	19.023	-138.907	-54.5777	-4.68948	-134.288	-30.1732	10.0975	-159.231	-19.931	19.8528	-195.292	-46.6888	-12.9174	-216.339	-41.0663	10.762	-210.196	-15.448	-12.962	
253	2.10833	-195.647	20.9464	1.99033	-166.052	29.6341	-9.86323	-141.91	41.5304	-24.2568	-124.233	50.6788	-32.0261	-143.162	-9.38535	-51.4691	-119.646	0.891828	-54.7713	-93.7306	10.5992	-51.4294	-131.054	-20.0426	-35.661	-112.89	-2.15485	-19.0234	-137.029	8.12746	12.3724	-129.361	-32.6852	-16.7271	-120.202	-16.1324	4.92353	-150.439	-6.09772	20.9063	-132.442	-44.8004	-1.1209	-130.2	-20.5603	14.8301	-154.786	-13.628	26.6522	-186.813	-48.4406	-12.6014	-209.13	-44.7816	10.5432	-205.959	-14.3531	-13.8354	
254	2.11667	-198.154	16.4167	-2.44679	-174.539	36.4544	-13.5005	-153.251	47.9029	-25.0092	-133.739	58.303	-35.89	-145.957	0.77421	-50.2584	-120.385	13.8132	-53.0284	-94.8501	27.7697	-47.1022	-132.483	-13.5626	-32.2246	-115.643	11.3346	-14.2267	-146.323	17.8324	16.774	-128.639	-23.111	-14.6672	-122.893	0.910619	7.67781	-153.412	0.907931	21.8856	-127.749	-34.8632	3.44487	-127.545	-9.9946	15.4326	-157.052	-6.76488	25.1887	-181.11	-45.2331	-10.3592	-203.643	-43.2883	13.2044	-206.677	-17.5566	-11.7566	
255	2.125	-203.95	13.7953	-2.59327	-186.213	35.6168	-14.3638	-166.708	52.8969	-28.6284	-148.368	64.2158	-39.3226	-149.067	5.61413	-50.0867	-122.944	23.0951	-51.9519	-104.377	38.8999	-47.1413	-134.167	1.88876	-32.4162	-122.236	22.177	-12.1848	-151.24	23.7089	16.749	-130.096	-10.4477	-14.9639	-126.995	11.1209	10.2729	-159.719	9.23766	20.9078	-124.958	-20.3378	2.29983	-127.675	-0.265167	19.6355	-159.533	-3.43717	27.3501	-176.005	-42.4127	-7.79302	-199.883	-44.8603	14.3644	-205.504	-23.5007	-9.76234	
256	2.13333	-213.968	12.7952	-2.88188	-196.638	36.5848	-17.8394	-177.305	51.1306	-32.6593	-164.81	69.5085	-45.9088	-156.737	10.5552	-51.5937	-133.228	34.3734	-56.4156	-114.834	52.4456	-49.607	-137.082	4.57493	-30.6071	-130.509	32.7896	-13.2044	-159.323	31.0374	14.173	-131.859	1.11914	-15.0252	-132.498	21.0558	6.7801	-162.807	13.5022	18.9745	-126.954	-12.2606	2.04308	-134.464	12.2984	13.4704	-161.51	3.47378	23.6848	-172.331	-40.2715	-6.2107	-196.972	-46.5083	15.3131	-204.91	-26.7861	-9.20767	
257	2.14167	-220.192	12.1198	-4.09132	-204.991	35.6255	-22.2574	-189.73	51.0468	-35.425	-176.359	67.8566	-48.7016	-160.466	14.7106	-57.5264	-139.806	35.3981	-58.6405	-126.8	55.5858	-54.1484	-145.09	13.134	-38.1623	-140.547	39.4096	-14.2994	-169.4	34.5133	9.63454	-137.641	1.82787	-19.2014	-137.796	27.0294	1.33817	-168.043	19.8977	13.8894	-131.067	-5.08804	-1.08257	-141.37	17.6058	11.5353	-166.677	5.2109	22.9429	-172.347	-37.0745	-7.94428	-195.528	-46.4477	16.7161	-202.918	-25.3423	-12.5795	
258	2.15	-222.361	9.61591	-5.51582	-211.248	31.896	-19.7931	-200.902	53.9794	-43.5909	-189.574	66.3239	-55.2138	-168.425	12.9042	-59.8893	-150.825	34.4099	-65.8468	-137.955	57.5904	-62.4132	-149.037	11.3395	-41.1486	-149.343	42.7531	-23.409	-172.447	32.5622	6.89346	-142.514	7.67985	-24.499	-147.273	32.0678	-5.34661	-174.994	16.8503	11.8289	-135.718	0.315771	-9.39315	-146.353	21.2306	7.94034	-167.885	7.65847	15.9983	-175.613	-38.8826	-7.58067	-197.385	-43.8528	13.6277	-208.548	-26.0779	-11.633	
